<svg width="22" height="17" viewBox="0 0 22 17" fill="none" xmlns="http://www.w3.org/2000/svg">
<path d="M1 8.00839H4.5C6.433 8.00839 8 6.43951 8 4.50419C8 2.56887 6.433 0.999985 4.5 0.999985H1V8.00839ZM1 8.00839H6.5C8.433 8.00839 10 9.57728 10 11.5126C10 13.4479 8.433 15.0168 6.5 15.0168H1V8.00839ZM13 11.012H21C21 8.8002 19.2091 7.00719 17 7.00719C14.7909 7.00719 13 8.8002 13 11.012ZM13 11.012C13 13.2238 14.7909 15.0168 17 15.0168C17.8489 15.0168 18.6361 14.752 19.2835 14.3005M12.5 3.00239H21.5" stroke="#F44336" stroke-width="2"/>
</svg>
