<svg width="19" height="20" viewBox="0 0 19 20" fill="none" xmlns="http://www.w3.org/2000/svg">
<path d="M7.37576 16.346C7.90247 16.1799 8.1948 15.6182 8.0287 15.0915C7.8626 14.5648 7.30096 14.2724 6.77424 14.4386L7.37576 16.346ZM2.25422 11.6217L1.28708 11.3675L0.778631 13.3018L1.74578 13.556L2.25422 11.6217ZM12.075 18.8965V19.8965H14.075V18.8965H12.075ZM12.575 11.888L12.468 10.8938C12.0847 10.935 11.7592 11.193 11.6315 11.5567C11.5037 11.9205 11.5965 12.3252 11.8698 12.5971L12.575 11.888ZM17.075 6.65927L18.075 6.65927L18.075 6.65605L17.075 6.65927ZM15.9086 3.84715L14.9763 3.4855C14.8333 3.85422 14.921 4.2726 15.2001 4.55282L15.9086 3.84715ZM15.8386 1.02013L16.7519 0.612768C16.6315 0.34283 16.3978 0.139987 16.1136 0.0586963L15.8386 1.02013ZM12.7971 2.13009L12.5446 3.09768C12.816 3.16851 13.1046 3.12211 13.3401 2.9698L12.7971 2.13009ZM7.35286 2.13009L6.80998 2.9699C7.04547 3.12213 7.33406 3.16849 7.60538 3.09768L7.35286 2.13009ZM4.31136 1.02013L4.03609 0.0587656C3.75202 0.140104 3.51847 0.342911 3.3981 0.612768L4.31136 1.02013ZM4.24136 3.84715L4.94984 4.55288C5.22897 4.27266 5.31672 3.85425 5.17368 3.4855L4.24136 3.84715ZM3.07499 6.68205L4.07499 6.68205L4.07498 6.67949L3.07499 6.68205ZM7.575 11.888L8.28133 12.5959C8.55249 12.3254 8.64526 11.9237 8.52022 11.5616C8.39518 11.1995 8.0743 10.9407 7.69396 10.8951L7.575 11.888ZM7.075 13.9906H8.075C8.075 13.9662 8.07411 13.9418 8.07232 13.9174L7.075 13.9906ZM6.075 18.8965V19.8965H8.075V18.8965H6.075ZM6.77424 14.4386C5.97018 14.6921 5.50216 14.6508 5.22454 14.5591C4.94977 14.4683 4.72476 14.2836 4.48735 13.9737C4.36629 13.8157 4.25238 13.639 4.12705 13.4359C4.01058 13.2471 3.86865 13.009 3.72627 12.7988C3.45327 12.3957 3.00613 11.8194 2.25422 11.6217L1.74578 13.556C1.74654 13.5562 1.75065 13.5572 1.76041 13.5629C1.77115 13.5691 1.7909 13.5824 1.81984 13.6089C1.88264 13.6663 1.96271 13.7614 2.07033 13.9203C2.18104 14.0838 2.28361 14.257 2.42495 14.4861C2.55741 14.7007 2.71459 14.9484 2.89978 15.1901C3.27487 15.6796 3.80301 16.1957 4.59706 16.4581C5.38825 16.7195 6.3047 16.6837 7.37576 16.346L6.77424 14.4386ZM14.075 13.903C14.075 13.1493 14.1549 12.0489 13.2801 11.179L11.8698 12.5971C11.9626 12.6894 12.0078 12.7764 12.0375 12.9403C12.077 13.159 12.075 13.4217 12.075 13.903H14.075ZM12.682 12.8823C13.9571 12.7451 15.3568 12.4335 16.4219 11.4428C17.5177 10.4235 18.075 8.86645 18.075 6.65927H16.075C16.075 8.54676 15.6034 9.47269 15.0597 9.9784C14.4853 10.5127 13.635 10.7682 12.468 10.8938L12.682 12.8823ZM18.075 6.65605C18.0707 5.33818 17.5469 4.07506 16.6172 3.14148L15.2001 4.55282C15.7579 5.11289 16.0724 5.87106 16.075 6.6625L18.075 6.65605ZM16.8409 4.2088C17.0642 3.63322 17.1713 3.01908 17.156 2.40187L15.1566 2.45138C15.1653 2.80466 15.1041 3.15614 14.9763 3.4855L16.8409 4.2088ZM17.156 2.40187C17.1407 1.78466 17.0034 1.17658 16.7519 0.612768L14.9253 1.4275C15.0692 1.7501 15.1479 2.0981 15.1566 2.45138L17.156 2.40187ZM15.8386 1.02013C16.1136 0.0586963 16.1127 0.0584281 16.1118 0.0581599C16.1114 0.0580694 16.1105 0.0578013 16.1099 0.057621C16.1086 0.0572609 16.1073 0.0568992 16.106 0.056536C16.1034 0.0558095 16.1007 0.055077 16.0979 0.0543394C16.0925 0.0528643 16.0867 0.0513693 16.0808 0.0498622C16.0688 0.0468476 16.0559 0.0437866 16.042 0.0407407C16.0143 0.0346461 15.9826 0.0286271 15.9471 0.0231617C15.876 0.0122166 15.7899 0.00358377 15.6886 0.000874734C15.4855 -0.00455624 15.2251 0.0139186 14.9047 0.0824443C14.2655 0.219175 13.3931 0.553811 12.2541 1.29038L13.3401 2.9698C14.3239 2.3336 14.9722 2.11325 15.3231 2.0382C15.4978 2.00083 15.5997 1.99921 15.6352 2.00016C15.6531 2.00064 15.6554 2.00182 15.6429 1.99988C15.6366 1.99892 15.6268 1.99721 15.6135 1.99429C15.6069 1.99284 15.5994 1.99108 15.5911 1.98898C15.5869 1.98793 15.5825 1.98679 15.5779 1.98556C15.5756 1.98494 15.5733 1.9843 15.5709 1.98364C15.5697 1.9833 15.5685 1.98297 15.5673 1.98262C15.5667 1.98245 15.5658 1.98219 15.5654 1.9821C15.5645 1.98184 15.5636 1.98157 15.8386 1.02013ZM13.0496 1.1625C11.0991 0.653473 9.05085 0.653473 7.10035 1.1625L7.60538 3.09768C9.22474 2.67508 10.9252 2.67508 12.5446 3.09768L13.0496 1.1625ZM7.89574 1.29028C6.75643 0.553792 5.88402 0.219183 5.24498 0.0824538C4.9247 0.013927 4.66435 -0.00455844 4.46122 0.000875143C4.3599 0.0035855 4.27382 0.0122231 4.2027 0.0231791C4.16719 0.0286499 4.13555 0.0346758 4.10775 0.040779C4.09386 0.0438293 4.08094 0.046895 4.06899 0.0499147C4.06302 0.0514244 4.05729 0.0529221 4.05181 0.0544C4.04907 0.055139 4.04639 0.0558729 4.04377 0.0566008C4.04246 0.0569648 4.04116 0.0573273 4.03988 0.0576881C4.03925 0.0578687 4.0383 0.0581374 4.03798 0.0582281C4.03703 0.0584969 4.03609 0.0587656 4.31136 1.02013C4.58663 1.9815 4.5857 1.98177 4.58477 1.98203C4.58446 1.98212 4.58354 1.98238 4.58292 1.98255C4.5817 1.9829 4.58049 1.98324 4.57929 1.98357C4.5769 1.98424 4.57455 1.98488 4.57226 1.9855C4.56768 1.98673 4.5633 1.98787 4.55913 1.98893C4.55078 1.99104 4.54328 1.99279 4.53663 1.99425C4.52331 1.99718 4.51347 1.9989 4.5072 1.99986C4.49457 2.00181 4.49679 2.00064 4.5147 2.00016C4.55004 1.99921 4.65189 2.00082 4.82653 2.03819C5.17733 2.11325 5.82567 2.33361 6.80998 2.9699L7.89574 1.29028ZM3.3981 0.612768C3.14661 1.17658 3.00927 1.78466 2.99399 2.40187L4.99337 2.45138C5.00212 2.0981 5.08073 1.7501 5.22463 1.4275L3.3981 0.612768ZM2.99399 2.40187C2.9787 3.01908 3.08578 3.63322 3.30905 4.2088L5.17368 3.4855C5.04592 3.15614 4.98463 2.80466 4.99337 2.45138L2.99399 2.40187ZM3.53288 3.14142C3.06899 3.60712 2.70148 4.1598 2.45133 4.76779L4.3009 5.52876C4.45105 5.16383 4.67159 4.83222 4.94984 4.55288L3.53288 3.14142ZM2.45133 4.76779C2.20119 5.37577 2.07331 6.02714 2.07499 6.68461L4.07498 6.67949C4.07397 6.28474 4.15076 5.8937 4.3009 5.52876L2.45133 4.76779ZM2.07499 6.68205C2.07499 8.87713 2.63384 10.4216 3.73085 11.4344C4.79324 12.4152 6.1892 12.7292 7.45604 12.8809L7.69396 10.8951C6.51868 10.7543 5.66463 10.4977 5.08754 9.96491C4.54508 9.46409 4.07499 8.55184 4.07499 6.68205H2.07499ZM6.86867 11.1802C6.41544 11.6324 6.21541 12.1974 6.12722 12.6872C6.03888 13.1778 6.04876 13.6695 6.07768 14.0637L8.07232 13.9174C8.04874 13.5959 8.05005 13.2944 8.09556 13.0416C8.14122 12.7881 8.21744 12.6597 8.28133 12.5959L6.86867 11.1802ZM6.075 13.9906V18.8965H8.075V13.9906H6.075ZM14.075 18.8965V13.903H12.075V18.8965H14.075Z" fill="#F44336"/>
</svg>
