<svg width="22" height="23" viewBox="0 0 22 23" fill="none" xmlns="http://www.w3.org/2000/svg">
<path d="M14 8.00839C13.3597 7.36734 12.4913 7.00719 11.5858 7.00719H10C8.89543 7.00719 8 7.9037 8 9.0096C8 10.1155 8.89543 11.012 10 11.012H12C13.1046 11.012 14 11.9085 14 13.0144C14 14.1203 13.1046 15.0168 12 15.0168H10.4142C9.50871 15.0168 8.64029 14.6567 8 14.0156M20.0417 12.2143C20.0948 11.8199 20.1304 11.4203 20.1304 11.012C20.1304 5.96333 16.0417 1.87059 11 1.87059C10.5922 1.87059 10.193 1.90716 9.79912 1.95853C8.89999 1.35345 7.81652 0.999985 6.65217 0.999985C3.53043 0.999985 1 3.53346 1 6.65895C1 7.82557 1.35305 8.90947 1.9574 9.80969C1.90523 10.2041 1.86957 10.6037 1.86957 11.012C1.86957 16.0607 5.95739 20.1534 11 20.1534C11.407 20.1534 11.8061 20.1177 12.2 20.0655C13.1 20.6705 14.1826 21.024 15.3478 21.024C18.4687 21.024 21 18.4905 21 15.365C21 14.1984 20.6461 13.1145 20.0417 12.2143Z" stroke="#F44336" stroke-width="2" stroke-linejoin="round"/>
</svg>
