<svg width="22" height="23" viewBox="0 0 22 23" fill="none" xmlns="http://www.w3.org/2000/svg">
<path d="M15 11.012V9.00961C15 7.90371 15.8954 7.00721 17 7.00721C18.1046 7.00721 19 7.90371 19 9.0096C19 10.1155 18.1046 11.012 17 11.012H15ZM15 11.012L11 11.012M15 11.012L15 3.00241C15 1.89651 14.1046 1 13 1C11.8954 1 11 1.89651 11 3.00241V11.012M11 11.012L11 7.00721M11 11.012L2.99999 11.012C1.89543 11.012 1 10.1155 1 9.0096C1 7.90371 1.89543 7.00721 2.99999 7.00721H11M11 11.012L19 11.012C20.1046 11.012 21 11.9085 21 13.0144C21 14.1203 20.1046 15.0168 19 15.0168H11M11 11.012V15.0168M11 11.012L7 11.012M11 11.012L11 19.0216C11 20.1275 10.1046 21.024 8.99999 21.024C7.89543 21.024 7 20.1275 7 19.0216V11.012M11 7.00721V5.0048C11 3.8989 10.1046 3.0024 8.99999 3.0024C7.89543 3.0024 7 3.89891 7 5.0048C7 6.1107 7.89543 7.00721 9 7.00721H11ZM11 15.0168H13C14.1046 15.0168 15 15.9133 15 17.0192C15 18.1251 14.1046 19.0216 13 19.0216C11.8954 19.0216 11 18.1251 11 17.0192V15.0168ZM7 11.012V13.0144C7 14.1203 6.10457 15.0168 5 15.0168C3.89543 15.0168 3 14.1203 3 13.0144C3 11.9085 3.89543 11.012 5 11.012H7Z" stroke="#F44336" stroke-width="2"/>
</svg>
