<svg width="22" height="23" viewBox="0 0 22 23" fill="none" xmlns="http://www.w3.org/2000/svg">
<path d="M2.99971 17.0198L3.89436 17.4666L4.1704 16.9138L3.79958 16.4196L2.99971 17.0198ZM4.99943 19.0219L5.60052 18.2227L5.10558 17.8505L4.55178 18.1277L4.99943 19.0219ZM1 21.024L0.105358 20.5772C-0.0869513 20.9623 -0.0112735 21.4272 0.293233 21.7315C0.597739 22.0357 1.06275 22.1109 1.44764 21.9182L1 21.024ZM7 7.0072L6.39954 6.20755C6.148 6.39643 6 6.69265 6 7.0072H7ZM15 15.0168V16.0168C15.2952 16.0168 15.5753 15.8864 15.7653 15.6605L15 15.0168ZM7.62146 6.54055L7.021 5.7409L7.021 5.7409L7.62146 6.54055ZM9.21373 7.21733L8.22144 7.34122L8.22144 7.34122L9.21373 7.21733ZM9.43934 9.02432L10.4316 8.90043L10.4316 8.90043L9.43934 9.02432ZM9.15417 9.85646L8.44663 9.14977L8.44663 9.14977L9.15417 9.85646ZM15.4433 14.4898L14.678 13.8461L14.678 13.8461L15.4433 14.4898ZM14.8232 12.8542L14.9682 11.8648L14.9682 11.8648L14.8232 12.8542ZM12.9968 12.5866L13.1418 11.5972L12.9968 12.5866ZM12.1449 12.8693L12.8525 13.576L12.8525 13.576L12.1449 12.8693ZM1.22041e-05 11.012C1.22041e-05 13.4899 0.818718 15.7793 2.19984 17.62L3.79958 16.4196C2.66943 14.9134 2.00001 13.0425 2.00001 11.012H1.22041e-05ZM11 -1.52588e-05C4.92375 -1.52588e-05 1.22041e-05 4.93136 1.22041e-05 11.012H2.00001C2.00001 6.03367 6.03058 1.99998 11 1.99998V-1.52588e-05ZM22 11.012C22 4.93136 17.0763 -1.52588e-05 11 -1.52588e-05V1.99998C15.9694 1.99998 20 6.03367 20 11.012H22ZM11 22.024C17.0763 22.024 22 17.0926 22 11.012H20C20 15.9903 15.9694 20.024 11 20.024V22.024ZM4.39833 19.8211C6.23698 21.204 8.52423 22.024 11 22.024V20.024C8.97284 20.024 7.10471 19.3541 5.60052 18.2227L4.39833 19.8211ZM1.44764 21.9182L5.44707 19.9161L4.55178 18.1277L0.552357 20.1298L1.44764 21.9182ZM2.10507 16.573L0.105358 20.5772L1.89464 21.4708L3.89436 17.4666L2.10507 16.573ZM6 7.0072V8.0084H8V7.0072H6ZM14 16.0168H15V14.0168H14V16.0168ZM6 8.0084C6 12.4302 9.58059 16.0168 14 16.0168V14.0168C10.6874 14.0168 8 11.3279 8 8.0084H6ZM7.60046 7.80686L8.22192 7.34021L7.021 5.7409L6.39954 6.20755L7.60046 7.80686ZM8.22144 7.34122L8.44704 9.1482L10.4316 8.90043L10.206 7.09344L8.22144 7.34122ZM8.44663 9.14977L7.29247 10.3053L8.70753 11.7187L9.8617 10.5631L8.44663 9.14977ZM8.44704 9.1482C8.44714 9.14904 8.4468 9.14961 8.44663 9.14977L9.8617 10.5631C10.2979 10.1264 10.5081 9.51275 10.4316 8.90043L8.44704 9.1482ZM8.22192 7.34021C8.22621 7.33698 8.22739 7.3369 8.22548 7.33765C8.22375 7.33832 8.22157 7.33885 8.21957 7.33906C8.21611 7.33942 8.21712 7.33856 8.22106 7.34024C8.225 7.34191 8.22528 7.34332 8.22339 7.3409C8.22227 7.33947 8.22125 7.33772 8.22063 7.33623C8.21993 7.33455 8.22075 7.33568 8.22144 7.34122L10.206 7.09344C10.0158 5.57011 8.25088 4.81738 7.021 5.7409L8.22192 7.34021ZM15.7653 15.6605L16.2086 15.1334L14.678 13.8461L14.2347 14.3731L15.7653 15.6605ZM14.9682 11.8648L13.1418 11.5972L12.8519 13.576L14.6782 13.8436L14.9682 11.8648ZM11.4374 12.1626L10.2925 13.3089L11.7075 14.7223L12.8525 13.576L11.4374 12.1626ZM13.1418 11.5972C12.5161 11.5055 11.8841 11.7153 11.4374 12.1626L12.8525 13.576L12.8519 13.576L13.1418 11.5972ZM16.2086 15.1334C17.2165 13.9351 16.5202 12.0922 14.9682 11.8648L14.6782 13.8436C14.6839 13.8445 14.6848 13.8453 14.6828 13.8444C14.681 13.8436 14.679 13.8423 14.6774 13.841C14.6747 13.8388 14.6764 13.8392 14.6783 13.844C14.6801 13.8489 14.6792 13.8505 14.6796 13.8475C14.6799 13.8456 14.6805 13.8436 14.6813 13.8419C14.6821 13.8401 14.6818 13.8416 14.678 13.8461L16.2086 15.1334Z" fill="#F44336"/>
</svg>
