<svg width="22" height="16" viewBox="0 0 22 16" fill="none" xmlns="http://www.w3.org/2000/svg">
<path d="M1.07501 7.51236H4.57501C6.50801 7.51236 8.07501 5.94348 8.07501 4.00816C8.07501 2.07284 6.50801 0.503952 4.57501 0.503952H1.07501V7.51236ZM1.07501 7.51236H6.57501C8.50801 7.51236 10.075 9.08125 10.075 11.0166C10.075 12.9519 8.50801 14.5208 6.57501 14.5208H1.07501V7.51236ZM13.075 10.516H21.075C21.075 8.30417 19.2842 6.51116 17.075 6.51116C14.8659 6.51116 13.075 8.30417 13.075 10.516ZM13.075 10.516C13.075 12.7278 14.8659 14.5208 17.075 14.5208C17.9239 14.5208 18.7111 14.256 19.3586 13.8045M12.575 2.50635H21.575" stroke="#F44336"/>
</svg>
