<svg width="17" height="20" viewBox="0 0 17 20" fill="none" xmlns="http://www.w3.org/2000/svg">
<path d="M6.22538 15.497C6.48874 15.414 6.6349 15.1331 6.55185 14.8698C6.4688 14.6064 6.18798 14.4603 5.92462 14.5433L6.22538 15.497ZM1.12711 11.7332L0.643539 11.6061L0.389316 12.5733L0.872888 12.7004L1.12711 11.7332ZM11.575 18.5244V19.0244H12.575V18.5244H11.575ZM11.575 11.516L11.5215 11.0188C11.3298 11.0395 11.1671 11.1684 11.1032 11.3503C11.0394 11.5322 11.0857 11.7346 11.2224 11.8705L11.575 11.516ZM16.075 6.28719H16.575L16.575 6.28558L16.075 6.28719ZM14.9086 3.47506L14.4425 3.29424C14.3709 3.4786 14.4148 3.68779 14.5543 3.8279L14.9086 3.47506ZM14.8386 0.648047L15.2952 0.444365C15.235 0.309396 15.1182 0.207974 14.9761 0.167329L14.8386 0.648047ZM11.7971 1.758L11.6709 2.2418C11.8065 2.27721 11.9509 2.25401 12.0686 2.17786L11.7971 1.758ZM6.35286 1.758L6.08142 2.17791C6.19917 2.25402 6.34346 2.2772 6.47912 2.2418L6.35286 1.758ZM3.31136 0.648047L3.17373 0.167364C3.03169 0.208033 2.91492 0.309436 2.85473 0.444365L3.31136 0.648047ZM3.24136 3.47506L3.5956 3.82793C3.73517 3.68782 3.77904 3.47861 3.70752 3.29424L3.24136 3.47506ZM2.07499 6.30997H2.57499L2.57499 6.30869L2.07499 6.30997ZM6.575 11.516L6.92817 11.8699C7.06374 11.7346 7.11013 11.5338 7.04761 11.3527C6.98509 11.1717 6.82465 11.0423 6.63448 11.0195L6.575 11.516ZM6.075 13.6185H6.575C6.575 13.6063 6.57455 13.5941 6.57366 13.5819L6.075 13.6185ZM5.575 18.5244V19.0244H6.575V18.5244H5.575ZM5.92462 14.5433C5.05381 14.8179 4.47368 14.7959 4.06767 14.6618C3.66308 14.5281 3.36229 14.2605 3.09045 13.9057C2.95336 13.7268 2.82864 13.5324 2.70152 13.3263C2.57884 13.1275 2.44675 12.9056 2.31228 12.7071C2.04923 12.3187 1.69053 11.8813 1.12711 11.7332L0.872888 12.7004C1.05934 12.7494 1.24117 12.9088 1.48431 13.2678C1.60294 13.443 1.71535 13.6324 1.85047 13.8514C1.98115 14.0632 2.12751 14.2931 2.29667 14.5139C2.63734 14.9585 3.0897 15.3918 3.75393 15.6113C4.41673 15.8303 5.22107 15.8137 6.22538 15.497L5.92462 14.5433ZM12.575 13.5309C12.575 12.716 12.627 11.857 11.9276 11.1614L11.2224 11.8705C11.5712 12.2174 11.575 12.5936 11.575 13.5309H12.575ZM11.6285 12.0131C12.8766 11.8788 14.1389 11.5812 15.0813 10.7046C16.0391 9.81371 16.575 8.41444 16.575 6.28719H15.575C15.575 8.2546 15.0819 9.33831 14.4002 9.97242C13.7032 10.6208 12.7155 10.8903 11.5215 11.0188L11.6285 12.0131ZM16.575 6.28558C16.5712 5.09932 16.0997 3.96243 15.2629 3.12223L14.5543 3.8279C15.2051 4.48134 15.572 5.36576 15.575 6.2888L16.575 6.28558ZM15.3748 3.65589C15.5742 3.14187 15.6698 2.59339 15.6561 2.04216L14.6564 2.06692C14.6668 2.48618 14.5941 2.90333 14.4425 3.29424L15.3748 3.65589ZM15.6561 2.04216C15.6425 1.49094 15.5198 0.947871 15.2952 0.444365L14.382 0.85173C14.5528 1.23463 14.6461 1.64766 14.6564 2.06692L15.6561 2.04216ZM14.8386 0.648047C14.9761 0.167329 14.9757 0.167194 14.9752 0.167059C14.975 0.167013 14.9745 0.166878 14.9742 0.166785C14.9736 0.166601 14.9729 0.166415 14.9722 0.166225C14.9708 0.165846 14.9694 0.165457 14.9679 0.165058C14.965 0.16426 14.9618 0.163423 14.9583 0.162556C14.9515 0.160821 14.9437 0.158963 14.9349 0.157043C14.9174 0.153201 14.8961 0.149115 14.8711 0.145256C14.8209 0.137531 14.7557 0.130762 14.6753 0.128611C14.514 0.1243 14.2932 0.138561 14.0093 0.199297C13.4422 0.320609 12.6258 0.626672 11.5256 1.33815L12.0686 2.17786C13.0912 1.51656 13.7955 1.26765 14.2185 1.17717C14.4296 1.13202 14.5711 1.12618 14.6485 1.12825C14.6873 1.12929 14.7106 1.13233 14.7189 1.13362C14.7231 1.13426 14.7237 1.13448 14.7206 1.13382C14.7191 1.13349 14.7167 1.13294 14.7135 1.13211C14.7119 1.1317 14.71 1.13122 14.7079 1.13067C14.7069 1.13039 14.7058 1.13009 14.7047 1.12977C14.7041 1.12962 14.7035 1.12945 14.7029 1.12929C14.7026 1.1292 14.7022 1.12907 14.702 1.12903C14.7016 1.1289 14.7011 1.12877 14.8386 0.648047ZM11.9234 1.27421C10.0557 0.786789 8.09432 0.786789 6.22661 1.27421L6.47912 2.2418C8.18126 1.79759 9.96871 1.79759 11.6709 2.2418L11.9234 1.27421ZM6.6243 1.3381C5.52374 0.626662 4.70735 0.320613 4.14036 0.199302C3.85649 0.138566 3.63577 0.124299 3.47459 0.128611C3.39412 0.130763 3.32901 0.137534 3.27883 0.145265C3.25376 0.149126 3.23249 0.153216 3.21497 0.157062C3.20621 0.158985 3.1984 0.160845 3.19153 0.162582C3.18809 0.163451 3.18489 0.164289 3.18192 0.165088C3.18044 0.165488 3.17902 0.165878 3.17765 0.166258C3.17697 0.166447 3.1763 0.166635 3.17564 0.166819C3.17532 0.166911 3.17484 0.167047 3.17468 0.167093C3.1742 0.167229 3.17373 0.167364 3.31136 0.648047C3.449 1.12873 3.44853 1.12886 3.44807 1.129C3.44792 1.12904 3.44746 1.12917 3.44716 1.12925C3.44657 1.12942 3.44598 1.12958 3.44541 1.12974C3.44427 1.13006 3.44318 1.13036 3.44215 1.13064C3.44008 1.13119 3.43823 1.13168 3.43659 1.13209C3.43332 1.13292 3.43092 1.13347 3.42941 1.1338C3.42637 1.13447 3.4269 1.13425 3.43107 1.13361C3.43938 1.13233 3.46257 1.12929 3.50133 1.12825C3.57862 1.12619 3.72009 1.13201 3.93114 1.17717C4.354 1.26764 5.05836 1.51657 6.08142 2.17791L6.6243 1.3381ZM2.85473 0.444365C2.63014 0.947872 2.50748 1.49094 2.49383 2.04216L3.49353 2.06692C3.50391 1.64766 3.5972 1.23463 3.768 0.85173L2.85473 0.444365ZM2.49383 2.04216C2.48018 2.59339 2.57581 3.14187 2.77521 3.65589L3.70752 3.29424C3.55588 2.90333 3.48314 2.48618 3.49353 2.06692L2.49383 2.04216ZM2.88712 3.1222C2.46964 3.54131 2.13887 4.03872 1.91372 4.58594L2.83851 4.96643C3.01365 4.54074 3.27094 4.15386 3.5956 3.82793L2.88712 3.1222ZM1.91372 4.58594C1.68858 5.13316 1.57348 5.71945 1.57499 6.31124L2.57499 6.30869C2.57381 5.84826 2.66336 5.39213 2.83851 4.96643L1.91372 4.58594ZM1.57499 6.30997C1.57499 8.42373 2.11165 9.81013 3.07002 10.6949C4.01109 11.5638 5.27157 11.8634 6.51552 12.0124L6.63448 11.0195C5.43631 10.876 4.44678 10.605 3.74837 9.9602C3.06727 9.33138 2.57499 8.26108 2.57499 6.30997H1.57499ZM6.22183 11.162C5.86594 11.5171 5.69686 11.973 5.6193 12.4037C5.54168 12.8348 5.54875 13.279 5.57634 13.6551L6.57366 13.5819C6.54875 13.2422 6.54726 12.8931 6.60348 12.5809C6.65976 12.2683 6.76694 12.0308 6.92817 11.8699L6.22183 11.162ZM5.575 13.6185V18.5244H6.575V13.6185H5.575ZM12.575 18.5244V13.5309H11.575V18.5244H12.575Z" fill="#F44336"/>
</svg>
