<svg width="22" height="22" viewBox="0 0 22 22" fill="none" xmlns="http://www.w3.org/2000/svg">
<path d="M13.575 8.00815C12.9347 7.36709 12.0663 7.00695 11.1608 7.00695H9.57501C8.47044 7.00695 7.57501 7.90346 7.57501 9.00935C7.57501 10.1152 8.47044 11.0118 9.57501 11.0118H11.575C12.6796 11.0118 13.575 11.9083 13.575 13.0142C13.575 14.1201 12.6796 15.0166 11.575 15.0166H9.98923C9.08372 15.0166 8.2153 14.6564 7.57501 14.0154M19.6168 12.2141C19.6698 11.8197 19.7054 11.4201 19.7054 11.0118C19.7054 5.96309 15.6168 1.87035 10.575 1.87035C10.1672 1.87035 9.76805 1.90692 9.37413 1.95828C8.475 1.35321 7.39153 0.999741 6.22719 0.999741C3.10545 0.999741 0.575012 3.53321 0.575012 6.6587C0.575012 7.82532 0.928067 8.90923 1.53241 9.80944C1.48024 10.2038 1.44458 10.6034 1.44458 11.0118C1.44458 16.0604 5.5324 20.1532 10.575 20.1532C10.982 20.1532 11.3811 20.1175 11.775 20.0652C12.675 20.6703 13.7576 21.0238 14.9228 21.0238C18.0437 21.0238 20.575 18.4903 20.575 15.3648C20.575 14.1982 20.2211 13.1143 19.6168 12.2141Z" stroke="#F44336" stroke-linejoin="round"/>
</svg>
