<svg width="22" height="22" viewBox="0 0 22 22" fill="none" xmlns="http://www.w3.org/2000/svg">
<path d="M15.075 10.5123V8.50994C15.075 7.40405 15.9704 6.50754 17.075 6.50754C18.1796 6.50754 19.075 7.40404 19.075 8.50994C19.075 9.61583 18.1796 10.5123 17.075 10.5123H15.075ZM15.075 10.5123L11.075 10.5124M15.075 10.5123L15.075 2.50274C15.075 1.39684 14.1796 0.500336 13.075 0.500336C11.9704 0.500336 11.075 1.39685 11.075 2.50274V10.5124M11.075 10.5124L11.075 6.50754M11.075 10.5124L3.07501 10.5123C1.97044 10.5123 1.07501 9.61583 1.07501 8.50994C1.07501 7.40404 1.97044 6.50754 3.075 6.50754H11.075M11.075 10.5124L19.075 10.5123C20.1796 10.5123 21.075 11.4089 21.075 12.5148C21.075 13.6206 20.1796 14.5172 19.075 14.5172H11.075M11.075 10.5124V14.5172M11.075 10.5124L7.07501 10.5123M11.075 10.5124L11.075 18.522C11.075 19.6279 10.1796 20.5244 9.075 20.5244C7.97044 20.5244 7.07501 19.6279 7.07501 18.522V10.5123M11.075 6.50754V4.50513C11.075 3.39924 10.1796 2.50274 9.075 2.50274C7.97044 2.50274 7.07501 3.39924 7.07501 4.50514C7.07501 5.61103 7.97044 6.50754 9.07501 6.50754H11.075ZM11.075 14.5172H13.075C14.1796 14.5172 15.075 15.4137 15.075 16.5196C15.075 17.6255 14.1796 18.522 13.075 18.522C11.9704 18.522 11.075 17.6255 11.075 16.5196V14.5172ZM7.07501 10.5123V12.5148C7.07501 13.6206 6.17958 14.5172 5.07501 14.5172C3.97044 14.5172 3.07501 13.6206 3.07501 12.5148C3.07501 11.4089 3.97044 10.5123 5.07501 10.5123H7.07501Z" stroke="#F44336"/>
</svg>
