<svg width="22" height="22" viewBox="0 0 22 22" fill="none" xmlns="http://www.w3.org/2000/svg">
<path d="M3.07473 17.0207L3.52205 17.2441L3.66007 16.9678L3.47466 16.7207L3.07473 17.0207ZM5.07444 19.0229L5.37499 18.6233L5.12752 18.4371L4.85062 18.5758L5.07444 19.0229ZM1.07501 21.025L0.627691 20.8016C0.531537 20.9941 0.569375 21.2266 0.721629 21.3787C0.873882 21.5308 1.10639 21.5684 1.29883 21.4721L1.07501 21.025ZM7.07501 7.00816L6.77478 6.60834C6.64901 6.70278 6.57501 6.85089 6.57501 7.00816H7.07501ZM15.075 15.0178V15.5178C15.2226 15.5178 15.3627 15.4526 15.4577 15.3396L15.075 15.0178ZM7.69647 6.54151L7.39624 6.14169L7.69647 6.54151ZM9.28875 7.21829L8.7926 7.28023L9.28875 7.21829ZM9.51435 9.02528L10.0105 8.96333V8.96333L9.51435 9.02528ZM9.22918 9.85742L8.87541 9.50408V9.50408L9.22918 9.85742ZM15.5183 14.4907L15.1357 14.1689L15.5183 14.4907ZM14.8982 12.8552L14.9707 12.3604L14.8982 12.8552ZM13.0719 12.5876L13.1443 12.0928L13.0719 12.5876ZM12.2199 12.8703L12.5737 13.2236L12.2199 12.8703ZM0.575024 11.013C0.575024 13.379 1.35641 15.5638 2.67479 17.3208L3.47466 16.7207C2.28176 15.1308 1.57502 13.1553 1.57502 11.013H0.575024ZM11.075 0.500946C5.27547 0.500946 0.575024 5.2079 0.575024 11.013H1.57502C1.57502 5.75905 5.82889 1.50095 11.075 1.50095V0.500946ZM21.575 11.013C21.575 5.2079 16.8746 0.500946 11.075 0.500946V1.50095C16.3212 1.50095 20.575 5.75905 20.575 11.013H21.575ZM11.075 21.525C16.8746 21.525 21.575 16.818 21.575 11.013H20.575C20.575 16.2669 16.3212 20.525 11.075 20.525V21.525ZM4.77389 19.4224C6.52893 20.7425 8.7114 21.525 11.075 21.525V20.525C8.9357 20.525 6.96279 19.8175 5.37499 18.6233L4.77389 19.4224ZM1.29883 21.4721L5.29826 19.47L4.85062 18.5758L0.851191 20.5779L1.29883 21.4721ZM2.6274 16.7974L0.627691 20.8016L1.52233 21.2484L3.52205 17.2441L2.6274 16.7974ZM6.57501 7.00816V8.00937H7.57501V7.00816H6.57501ZM14.075 15.5178H15.075V14.5178H14.075V15.5178ZM6.57501 8.00937C6.57501 12.1556 9.93231 15.5178 14.075 15.5178V14.5178C10.4857 14.5178 7.57501 11.6044 7.57501 8.00937H6.57501ZM7.37524 7.40799L7.9967 6.94134L7.39624 6.14169L6.77478 6.60834L7.37524 7.40799ZM8.7926 7.28023L9.0182 9.08722L10.0105 8.96333L9.78489 7.15635L8.7926 7.28023ZM8.87541 9.50408L7.72125 10.6596L8.42878 11.3663L9.58294 10.2108L8.87541 9.50408ZM9.0182 9.08722C9.03739 9.24092 8.9846 9.39476 8.87541 9.50408L9.58294 10.2108C9.91017 9.88314 10.0679 9.42278 10.0105 8.96333L9.0182 9.08722ZM7.9967 6.94134C8.30314 6.71123 8.74484 6.89769 8.7926 7.28023L9.78489 7.15635C9.64218 6.01328 8.31831 5.4493 7.39624 6.14169L7.9967 6.94134ZM15.4577 15.3396L15.901 14.8126L15.1357 14.1689L14.6924 14.6959L15.4577 15.3396ZM14.9707 12.3604L13.1443 12.0928L12.9994 13.0823L14.8257 13.3499L14.9707 12.3604ZM11.8662 12.5169L10.7212 13.6632L11.4288 14.3699L12.5737 13.2236L11.8662 12.5169ZM13.1443 12.0928C12.6752 12.0241 12.2013 12.1814 11.8662 12.5169L12.5737 13.2236C12.6855 13.1117 12.8433 13.0594 12.9994 13.0823L13.1443 12.0928ZM15.901 14.8126C16.6573 13.9133 16.1344 12.5309 14.9707 12.3604L14.8257 13.3499C15.2128 13.4066 15.3889 13.8678 15.1357 14.1689L15.901 14.8126Z" fill="#F44336"/>
</svg>
